<?xml version="1.0" encoding="UTF-8"?>
<svg id="Layer_group" data-name="Layer group" xmlns="http://www.w3.org/2000/svg" viewBox="0 0 2732 2048">
  <defs>
    <style>
      .cls-1 {
        fill: #8f8f8f;
      }

      .cls-2 {
        fill: #c6c6c6;
      }

      .cls-3 {
        fill: #d7d7d7;
      }
    </style>
  </defs>
  <g id="Vector_layer" data-name="Vector layer">
    <path class="cls-1" d="M301.01,966.43c-5.92-2.53-10.89-2.37-20.19.09-11.84.4-23.66,1.86-35.49,2.7-5.05,4.54-10.08,9.1-15.12,13.64-.08.05-.14.09-.19.09-.19,0-.32-.25-.38-.44-.09-.31-.1-.87.17-1.12,4.44-4.01,8.9-8.02,13.34-12.03-8.49.56-16.97.74-25.47-.05-16.68-2.27-32.79-8.23-49.87-7.38-6.18-.67-12.26-.06-18.43.4-7.71-.27-15.69-6.38-16.97-14.15-.57-2.96-.73-5.8-.52-8.53-.99,1.05-1.97,2.12-2.93,3.19-9.34,9.36-17.22,20.02-24.36,31.12-2.04,3.05-4.04,6.13-5.79,9.33-.61,1.32-1.45,2.78-.6,4.2.27.49.55,1,.55,1.1,9.42,15.91,52.07,14.26,69.1,13.64,12.87-1.15,25.84-3.35,37.96-7.98,7.16-3.31,14.16-6.96,21.79-9.12,16.55-4.89,33.88-6.83,50.91-9.53-.22-2.31.05-6.23,2.83-6.79,6.64-.39,13.11-1.49,19.67-2.4ZM1383.61,812.29c13.78,3.89,27.99,2.3,42.03.79-10.64-1.05-21.22-3.43-31.99-3.63-9.5-.87-19.19-.97-28.72-2.02,6.23,1.66,12.45,3.35,18.67,4.87ZM2607.25,1040.56c5.55,12.8-.19,28.63-13.11,34.27-11.56,3.44-24.01,5.02-36.13,5.05.43.35.87.69,1.3,1.04,1.56,1.26,3.1,2.54,4.7,3.74.8.61,1.25,1.75,1.52,2.67.35,1.23.47,2.56.29,3.83-.13.88-.42,1.96-1.14,2.56-.29.23-.6.34-.9.34-.38,0-.74-.14-1.04-.42-2.12-1.82-4.33-3.54-6.49-5.29-2.65-2.17-5.29-4.32-7.96-6.48-1.21-.99-2.43-1.96-3.63-2.95-8.32-.65-16.56-1.09-24.99-.69-12.58-.21-24.76-3.75-37.18-5.52-3.28-.9-10.01.43-8.49-5,.03-1.13,1.1-2.41,1.84-.92,18.84.67,37.26,5.29,56.13,3.24.6,0,1.19,0,1.79.03-.8-.65-1.61-1.31-2.41-1.96-11.84-9.62-23.68-19.21-35.54-28.78-11.89-9.6-23.76-19.25-35.65-28.86-11.71-9.46-23.41-18.91-35.08-28.42-12.26-9.99-24.59-19.93-36.88-29.89-11.71-9.5-23.4-19-35.09-28.51-7.99-6.49-15.98-12.99-23.96-19.49-7.96-.32-15.91-.65-23.88-.96-43.15-1.71-86.31-3.43-129.47-5.14-84.99-3.37-169.98-6.75-254.97-10.12-87.75-3.49-175.51-6.97-263.25-10.46-89.48-3.57-178.96-7.1-268.44-10.67-87.74-3.49-175.48-6.97-263.22-10.46-87.16-3.46-174.32-6.93-261.49-10.41-85.65-3.41-171.3-6.84-256.95-10.28-43.36-1.74-86.69-3.48-130.05-5.24-24.63-1.01-49.26-2-73.89-3.02-8.94,8.05-17.9,16.09-26.82,24.12-10.71,9.62-21.4,19.22-32.09,28.84-10.76,9.66-21.52,19.31-32.27,28.95-10.77,9.64-21.53,19.28-32.3,28.91-5.26,4.7-10.51,9.38-15.75,14.07-2.86,2.54-5.71,5.07-8.55,7.62,8.12-.45,16.25-.84,24.51-.65,15.09-3.05,19.52-1.1,31.61,8.03,2.49.77,1.73,6.68-1.22,4.61-2.62-1.69-4.87-3.08-6.93-4.15.84,1.82.36,4.91-.27,6.35-1.08,2.78-4.76,1.96-7.14,2.73-.25,9.05-13.08,7.27-19.4,8.9-11.98,1.48-23.76,3.97-35.65,5.87-16.69,2.14-30.42,11.97-46.37,16.04-17.7,4.62-36.21,5.87-54.43,4.65-13.68-1.66-29.16-1.12-40.4-10.1-13.21-11.68-5.98-25.5,2.89-37.52,9.98-15.29,21.93-29.29,35.03-42.14,6.44-9.95,16.75-18.21,25.5-25.71,1.57-1.21,2.63-4.28,4.85-4,.65.74,1.1,1.48,1.4,2.23,28.2-21.87,56.14-44.1,83.16-67.46,17.95-14.7,35.91-29.71,55.66-41.97,15.4-8.55,32-15.42,48.3-21.84,38.67-13.11,80.47-2.56,120.25-1.45,14.31,1.03,28.6-1.3,42.92-.79,22.7.42,45.2,3.31,67.68,6.24,19,1.95,37.91,4.54,56.93,6.05,18.99,1.47,38.04.69,57.04,1.92,22.87,1.39,45.78-.36,68.66.84,15.99.9,31.99,1.89,48,2.36,41.57,2.14,82.94,6.88,124.49,9.29,19.49,1.43,38.89-1.13,58.35-1.89,37.27-.71,74.53-.91,111.72,2.17,37.18,3.31,74.53,3.54,111.84,3.46,31.22,1.58,62.3,5.62,93.59,6.54,9.71.55,19.23,2.23,28.67,4.37-1.25-1.99-1.15-4.92-.38-6.97.25-.53.52-1,.88-1.44.78-1.08,2.27-.56,2.82.49,15.29,3.67,31.05,3.39,46.64,4.83,11.3.31,22.32,2.96,33.53,3.97,14.22-1.04,28.38-.99,42.58.53.77.05,1.53.12,2.3.19,17.45-3.65,34.91-7.35,52.67-9.32,8.79-1.39,17.66.69,26.47.73,8.36.26,16.77-1.27,24.73-3.11.7,0,.53,2.1-.09,1.99-5.19,4.02-11.86,6.16-18.52,7.06-12.29,1.86-24.88-.45-37.04,2.47-3.3.47-6.58,1-9.85,1.57,15.27-1.03,30.52-2.32,45.81-2.82,24.9,1.49,50.13,2.36,74.62,7.62,17.31,2.62,34.61,5.09,51.88,7.92,20.26,1.64,40.62.31,60.82-1.43,20.37-1.62,40.85-1.69,61.27-2.1,20.18,0,39.92,5.4,60.11,5.79,15.62.51,31.55,3.83,46.87,5.83,25.76,1.79,51.34,5.93,77.22,5.76,20.18,1.19,40.29.39,60.46-.25,24.46,1.28,48.94.97,73.36,2.74,16.6.71,33.39,3.36,49.72,5,12.04.17,24.1-1.19,36.14-.27,20.61,1.12,41.45,3.52,62.04,1.69,9.17-1.78,18.57-4.07,27.37-7.63-.4-.06-.8-.13-1.21-.21-.31-.03-.61-.06-.92-.09-.26-.03-.51-.04-.73-.09h-.01c-18.67-1.36-37.09-4.44-55.88-4.63-8.49-.13-16.88,2.58-24.92,5.1-1.96,3.91-5.4-1.51-5.06-3.97-.06-1.52.1-3.3,1.1-4.5,3.15-1.97,7.28-2.91,10.84-3.71,4.39-.88,8.73-2.53,13.26-2.82,21.23-.29,42.18,3.26,63.26,4.93,5.28,1.03,10.37,1.36,15.46,1.49-.01-.79.14-1.91.96-2.01.88-.05,1.17,1.43,1.21,2.06,4.18.08,8.37.06,12.67.25,18.4,2.7,36.51,6.79,54.32,12.12,33.42,10.68,64.59,28.45,90.05,52.55,32.42,27.72,57.71,62.25,85.13,94.63,14.81,18.97,35.61,33.86,46.26,55.75Z"/>
  </g>
  <g id="Vector_layer-2" data-name="Vector layer">
    <path class="cls-2" d="M2723.73,1024.99h-168.8l-298.05-212.65,96.49.17,370.36,212.48Z"/>
  </g>
  <g id="Vector_layer-3" data-name="Vector layer">
    <path class="cls-2" d="M442.52,747.83l-256.26,196.63-176.31-6.38,346.17-195,86.4,4.75Z"/>
  </g>
  <g id="Vector_layer-4" data-name="Vector layer">
    <path class="cls-3" d="M355.75,743.84l1998,69.45-20.64,49.45-1950.59-71.63-26.77-47.28Z"/>
  </g>
  <g id="Vector_layer-5" data-name="Vector layer">
    <path class="cls-3" d="M10.01,937.96l2713.7,86.65v146.97H10.01s0-233.62,0-233.62Z"/>
  </g>
</svg>