<?xml version="1.0" encoding="UTF-8"?>
<svg id="Layer_group" data-name="Layer group" xmlns="http://www.w3.org/2000/svg" viewBox="0 0 2732 2048">
  <defs>
    <style>
      .cls-1 {
        fill: #8f8f8f;
      }

      .cls-2 {
        fill: #c6c6c6;
      }

      .cls-3 {
        fill: #d7d7d7;
      }
    </style>
  </defs>
  <g id="Vector_layer" data-name="Vector layer">
    <path class="cls-1" d="M2234.57,1276.47c5.03-2.15,9.26-2.02,17.18.08,10.07.34,20.13,1.58,30.19,2.3,4.29,3.86,8.58,7.74,12.86,11.6.07.04.12.08.17.08.17,0,.28-.21.32-.38.08-.27.09-.74-.14-.95-3.78-3.41-7.57-6.82-11.35-10.23,7.22.47,14.44.63,21.67-.04,14.19-1.93,27.9-7,42.43-6.28,5.26-.57,10.43-.06,15.68.34,6.56-.23,13.35-5.43,14.44-12.03.49-2.52.62-4.93.44-7.25.84.89,1.68,1.8,2.49,2.72,7.95,7.96,14.65,17.03,20.72,26.47,1.73,2.59,3.43,5.21,4.92,7.94.52,1.13,1.24,2.36.51,3.58-.23.42-.46.85-.46.94-8.02,13.53-44.29,12.13-58.79,11.6-10.95-.98-21.98-2.85-32.29-6.79-6.09-2.82-12.04-5.92-18.54-7.76-14.08-4.16-28.82-5.81-43.31-8.1.19-1.97-.04-5.3-2.41-5.77-5.65-.33-11.15-1.27-16.74-2.04ZM1313.62,1145.34c-11.72,3.31-23.81,1.95-35.76.67,9.05-.89,18.05-2.92,27.21-3.09,8.08-.74,16.33-.83,24.43-1.72-5.3,1.41-10.59,2.85-15.89,4.14ZM272.68,1339.52c-4.72,10.89.17,24.35,11.15,29.16,9.84,2.93,20.42,4.27,30.73,4.29-.36.3-.74.58-1.1.88-1.32,1.07-2.64,2.16-4,3.18-.68.52-1.06,1.49-1.29,2.27-.3,1.05-.4,2.18-.24,3.26.11.75.35,1.67.97,2.17.24.2.51.29.76.29.32,0,.63-.12.88-.35,1.8-1.55,3.69-3.01,5.52-4.5,2.25-1.84,4.5-3.68,6.77-5.51,1.03-.84,2.06-1.67,3.09-2.51,7.08-.55,14.09-.93,21.26-.58,10.7-.18,21.06-3.19,31.63-4.69,2.79-.76,8.51.36,7.22-4.25-.02-.96-.94-2.05-1.57-.78-16.03.57-31.69,4.5-47.75,2.76-.51,0-1.02,0-1.52.02.68-.55,1.37-1.12,2.05-1.67,10.07-8.18,20.15-16.34,30.24-24.49,10.11-8.17,20.21-16.37,30.33-24.55,9.96-8.05,19.92-16.08,29.84-24.18,10.43-8.5,20.92-16.96,31.37-25.42,9.96-8.08,19.9-16.16,29.85-24.25,6.8-5.52,13.59-11.05,20.38-16.58,6.77-.28,13.53-.55,20.31-.82,36.71-1.46,73.42-2.92,110.14-4.37,72.3-2.87,144.6-5.74,216.9-8.61,74.65-2.97,149.3-5.93,223.94-8.9,76.12-3.04,152.24-6.04,228.36-9.07,74.64-2.97,149.28-5.93,223.92-8.9,74.14-2.95,148.3-5.9,222.45-8.85,72.86-2.9,145.72-5.82,218.59-8.74,36.88-1.48,73.74-2.96,110.63-4.46,20.95-.86,41.91-1.7,62.86-2.57,7.61,6.84,15.22,13.69,22.82,20.52,9.11,8.18,18.2,16.35,27.3,24.53,9.15,8.21,18.3,16.43,27.46,24.63,9.16,8.2,18.31,16.4,27.48,24.6,4.47,4,8.94,7.98,13.4,11.97,2.43,2.16,4.86,4.32,7.28,6.48-6.91-.39-13.82-.72-20.85-.55-12.84-2.59-16.6-.94-26.89,6.83-2.12.65-1.47,5.69,1.04,3.92,2.23-1.43,4.14-2.62,5.89-3.53-.72,1.55-.31,4.17.23,5.4.92,2.36,4.05,1.67,6.07,2.32.21,7.69,11.13,6.18,16.5,7.57,10.19,1.26,20.21,3.38,30.33,4.99,14.2,1.82,25.88,10.18,39.44,13.64,15.06,3.93,30.8,4.99,46.3,3.95,11.64-1.41,24.81-.95,34.37-8.59,11.24-9.94,5.09-21.69-2.46-31.92-8.49-13-18.66-24.92-29.8-35.85-5.48-8.47-14.25-15.49-21.69-21.87-1.34-1.03-2.24-3.64-4.13-3.4-.55.63-.94,1.26-1.19,1.9-23.99-18.6-47.76-37.51-70.74-57.38-15.27-12.51-30.55-25.27-47.35-35.7-13.1-7.28-27.22-13.12-41.09-18.58-32.9-11.15-68.46-2.17-102.29-1.24-12.18.87-24.33-1.1-36.51-.67-19.31.35-38.45,2.81-57.57,5.31-16.16,1.66-32.25,3.86-48.43,5.14-16.15,1.25-32.36.59-48.52,1.63-19.45,1.18-38.95-.31-58.41.72-13.6.76-27.21,1.61-40.84,2.01-35.36,1.82-70.55,5.85-105.9,7.9-16.58,1.21-33.09-.96-49.63-1.61-31.71-.61-63.4-.77-95.04,1.84-31.63,2.82-63.4,3.01-95.14,2.95-26.56,1.35-53,4.78-79.62,5.56-8.26.46-16.36,1.9-24.39,3.72,1.06-1.69.98-4.18.32-5.93-.21-.45-.44-.85-.75-1.23-.66-.92-1.93-.47-2.4.42-13,3.12-26.42,2.88-39.68,4.11-9.62.26-18.99,2.52-28.53,3.38-12.1-.88-24.14-.84-36.22.45-.65.04-1.3.1-1.95.17-14.85-3.1-29.7-6.25-44.81-7.93-7.47-1.18-15.02.58-22.52.62-7.11.22-14.26-1.08-21.04-2.65-.6,0-.45,1.79.08,1.69,4.42,3.42,10.09,5.24,15.75,6.01,10.45,1.58,21.16-.39,31.51,2.1,2.8.4,5.6.85,8.38,1.34-12.99-.87-25.97-1.98-38.97-2.4-21.18,1.27-42.65,2.01-63.48,6.48-14.73,2.23-29.44,4.33-44.14,6.73-17.23,1.39-34.55.27-51.74-1.21-17.33-1.38-34.75-1.43-52.12-1.79-17.17,0-33.96,4.59-51.14,4.92-13.29.43-26.84,3.26-39.88,4.96-21.91,1.52-43.67,5.04-65.69,4.9-17.17,1.02-34.28.33-51.43-.21-20.81,1.09-41.63.83-62.41,2.33-14.12.61-28.41,2.86-42.29,4.25-10.24.14-20.5-1.02-30.75-.23-17.53.95-35.26,2.99-52.78,1.43-7.81-1.51-15.8-3.47-23.28-6.49.34-.06.68-.11,1.03-.18.27-.02.52-.06.78-.08.22-.02.43-.03.62-.08h.01c15.89-1.16,31.55-3.78,47.54-3.94,7.22-.11,14.36,2.2,21.2,4.34,1.67,3.32,4.59-1.28,4.31-3.38.06-1.29-.09-2.8-.94-3.83-2.68-1.68-6.19-2.47-9.22-3.16-3.73-.75-7.43-2.15-11.28-2.4-18.06-.24-35.88,2.77-53.82,4.2-4.49.87-8.82,1.16-13.15,1.27.01-.67-.12-1.62-.82-1.71-.75-.04-.99,1.21-1.03,1.76-3.55.07-7.12.06-10.78.21-15.65,2.3-31.05,5.77-46.21,10.31-28.43,9.09-54.94,24.2-76.6,44.7-27.58,23.58-49.09,52.96-72.42,80.5-12.6,16.14-30.29,28.8-39.36,47.43Z"/>
  </g>
  <g id="Vector_layer-2" data-name="Vector layer">
    <path class="cls-2" d="M173.6,1326.28h143.59l253.55-180.9-82.08.14-315.06,180.75Z"/>
  </g>
  <g id="Vector_layer-3" data-name="Vector layer">
    <path class="cls-2" d="M2114.19,1090.5l218,167.27,149.98-5.43-294.48-165.88-73.5,4.04Z"/>
  </g>
  <g id="Vector_layer-4" data-name="Vector layer">
    <path class="cls-3" d="M2188.01,1087.1l-1699.68,59.08,17.56,42.06,1659.35-60.93,22.77-40.22Z"/>
  </g>
  <g id="Vector_layer-5" data-name="Vector layer">
    <path class="cls-3" d="M2482.13,1252.25l-2308.52,73.71v125.03h2308.52v-198.74Z"/>
  </g>
</svg>