<?xml version="1.0" encoding="UTF-8"?>
<svg id="Layer_group" data-name="Layer group" xmlns="http://www.w3.org/2000/svg" xmlns:xlink="http://www.w3.org/1999/xlink" viewBox="0 0 2732 2048">
  <defs>
    <style>
      .cls-1 {
        fill: none;
      }

      .cls-2 {
        fill: #8f8f8f;
      }

      .cls-3 {
        fill: #d7d7d7;
      }

      .cls-4 {
        fill: #888;
      }

      .cls-5 {
        clip-path: url(#clippath);
      }
    </style>
    <clipPath id="clippath">
      <rect class="cls-1" x="810.47" y="691.78" width="1141.3" height="888.45"/>
    </clipPath>
  </defs>
  <g id="Vector_layer" data-name="Vector layer">
    <path class="cls-3" d="M1982.53,1718.92c-12.46-.54-24.93-1.08-37.39-1.62-24.98-1.09-49.95-2.17-74.93-3.25-53.46-2.32-106.92-4.66-160.38-6.97-54.43-2.35-108.85-4.73-163.27-7.09-53.01-2.3-106.02-4.61-159.02-6.91-53.42-2.32-106.84-4.65-160.25-6.96-52.87-2.29-105.73-4.58-158.6-6.88.06,0,.12,0,.17,0-37.39-1.62-74.77-3.25-112.16-4.87-48.4-2.11-96.8-4.24-145.21-6.25.17,0,.34.01.52.02-2.43-.1-4.86-.2-7.29-.3-11.91-.48-23.83-.96-35.75-1.21-5.58-.11-11.16-.21-16.74-.16-2,.02-4.01.02-6.01.06-1.64-17.27-3.27-34.52-4.91-51.79l-12.74-134.54c-4.38-46.29-8.77-92.59-13.15-138.88-4.36-46.05-8.73-92.09-13.09-138.14.02.17.03.34.05.51-1.98-20.91-3.96-41.82-5.94-62.73-4.35-46-8.71-92.01-13.06-138.01-4.27-45.03-8.53-90.05-12.8-135.08-2.14-22.64-4.29-45.3-6.44-67.94-.28-2.89-.55-5.79-.82-8.68,0-.04,0-.07-.01-.11-.02-.17-.03-.35-.05-.53-.26-2.75-.52-5.51-.78-8.27l-1.54-16.21c-3.45-36.47-6.84-72.95-10.43-109.41,0,.02,0,.03,0,.05-.96-9.86-1.95-19.71-3.05-29.55-.42-3.75-.9-7.5-1.36-11.25,4.24-.28,8.48-.57,12.73-.85,61.45-4.1,122.89-8.2,184.34-12.3,61.88-4.13,123.76-8.27,185.64-12.39,64.29-4.29,128.57-8.59,192.86-12.88,62.59-4.18,125.18-8.36,187.76-12.54,63.11-4.21,126.21-8.42,189.32-12.64,61.5-4.11,123-8.21,184.51-12.33,60.33-4.04,120.65-8.06,180.98-12.15-.17.01-.33.02-.5.04,3.71-.25,7.41-.5,11.12-.75,24.5-1.65,48.99-3.3,73.46-5.22,8.82-.69,17.63-1.47,26.44-2.33,3.71-.36,7.43-.72,11.14-1.14-3.5,43.56-7,87.11-10.51,130.66-4.16,51.62-8.31,103.25-12.46,154.88-2.14,26.53-4.27,53.05-6.4,79.59-.17,2.06-.33,4.13-.5,6.2-.04.5-.08,1.01-.12,1.51-.06.7-.18,1.43-.18,2.14-.02.22-.03.45-.05.68-.11,1.38-.22,2.75-.33,4.12-.25,3.09-.5,6.18-.75,9.28-.51,6.33-1.02,12.65-1.53,18.98-4.29,52.94-8.53,105.89-12.78,158.83-4.18,52.15-8.39,104.3-12.59,156.45-4.21,52.33-8.43,104.66-12.63,157-4.11,51.09-8.22,102.17-12.32,153.26.01-.17.03-.34.04-.51-1.6,19.92-3.21,39.84-4.8,59.76-1.73,21.56-3.49,43.12-5.14,64.7-.84,11.09-1.79,22.18-2.08,33.29,0-.14,0-.29.01-.43-.1,3.25-.27,6.5-.36,9.76,0,.23-.01.45-.02.68-2.62-.12-5.25-.23-7.87-.34Z"/>
  </g>
  <g id="Vector_layer_Vector_layer" data-name="Vector layer + Vector layer">
    <g class="cls-5">
      <path class="cls-2" d="M1951.77,691.78v888.45H810.47v-888.45h1141.3Z"/>
      <g id="Vector_layer-2" data-name="Vector layer">
        <path class="cls-4" d="M799.34,1594.23c-1.08-1.59-1.49-3.62-1.63-5.5-.15-2.12.05-4.39.83-6.39,5.47-13.97,10.89-27.96,16.34-41.94,7-17.98,13.98-35.96,21.04-53.91,4.36-11.09,8.75-22.16,13.2-32.2.45-1.02.91-2.04,1.36-3.06.04-.09.08-.17.12-.26.05-.1.09-.21.09-.21,1.67-3.74,3.49-7.41,5.29-11.08.87-1.77,1.76-3.51,2.72-5.22.67-1.19,1.43-2.35,2.03-3.56,0,0,0-.01,0-.02.06-.18.11-.37.18-.55.2-.52.54-1.18,1.12-1.36.54-.16,1,.21,1.29.63.89,1.31.88,3.39.32,4.82-.08.21-.18.41-.27.62-.46,1.53-.79,3.11-1.18,4.66-.57,2.25-1.23,4.49-1.91,6.71-1.45,4.73-2.87,9.47-4.47,14.15-2.56,7.53-5.26,15-8.06,22.44-6.25,16.6-12.76,33.1-19.19,49.63-6.75,17.34-13.51,34.68-20.26,52.02-1.01,2.6-2.03,5.2-3.04,7.79-.5,1.29-1.34,2.9-2.77,3.34-.22.07-.44.1-.65.1-1.06,0-1.94-.79-2.53-1.66Z"/>
        <path class="cls-4" d="M800.36,1587.04c-.27-1.39-.22-3.05.3-4.38.09-.22.19-.46.31-.7.82-3.22,1.64-6.43,2.6-9.61,1.41-4.66,3.12-9.26,4.82-13.83,3.03-8.16,6.11-16.3,9.28-24.41,6.89-17.66,13.89-35.27,20.88-52.88,6.53-16.47,13.07-32.93,19.61-49.4.24-.6.48-1.21.72-1.81.03-.09.07-.18.1-.28.03-.08.06-.16.1-.24.1-.26.21-.52.33-.79.02-.04.04-.09.06-.13,0,0,0,0,0,0,.49-1.03,1.2-2.05,2.29-2.4,1.34-.43,2.48.46,3.21,1.5,1.11,1.56,1.56,3.59,1.73,5.46.2,2.14,0,4.37-.71,6.41-.01.04-.03.07-.04.11-5.98,14.78-11.78,29.64-17.67,44.46-6.89,17.35-13.79,34.7-20.75,52.02-3.74,9.3-7.53,18.59-11.39,27.78-1.78,4.25-3.6,8.48-5.5,12.67-.86,1.89-1.73,3.79-2.73,5.6-.78,1.41-1.64,2.78-2.45,4.17-.12.21-.25.43-.37.64-.13.22-.25.45-.37.67-.06.19-.12.38-.19.56-.04.11-.09.23-.14.34-.22.55-.53,1.04-.96,1.34-.19.15-.41.25-.65.28-.09.02-.17.02-.25.02-1.35,0-1.99-2.17-2.18-3.18Z"/>
        <path class="cls-4" d="M874.07,755.85c-1.29-.07-2.51-1.1-3.56-1.79-1.27-.83-2.55-1.63-3.8-2.47-6.4-4.35-12.28-9.4-18.11-14.48-6.63-5.78-13.18-11.65-19.72-17.53-5.82-5.23-11.62-10.48-17.42-15.73-4.02-3.64-8-7.33-12-10.87-1.24-1.06-2.36-2.31-3.09-3.76-.57-1.15-1.07-2.74-.21-3.89.97-1.32,2.97-1.15,4.36-.82,2.58.61,5.12,2.2,6.94,4.12,1.57,1.45,3.18,2.87,4.76,4.3,2.95,2.67,5.89,5.35,8.83,8.02,6.32,5.73,12.62,11.48,18.91,17.24,6.84,6.27,13.69,12.55,20.36,19,2.57,2.48,5.13,5,7.52,7.65,1.98,2.2,3.82,4.48,5.62,6.84.3.39.6.77.9,1.16.43.56,1.17,1.34,1.07,2.12,0,.1-.02.2-.05.29-.17.5-.67.61-1.13.61-.06,0-.12,0-.18,0Z"/>
        <path class="cls-4" d="M790.1,1573.15c-2.92-7.64,9.62-24.92,13.05-32.57-5.04-5.06,3.81-17.35,6.17-22.73-3.59,5.14-7.5,10.04-11.32,15-1,1.3-3.11,3.22-4.93,2.38-4.1-3.66.64-10.09,2.2-14.08-8.14-5.21,10.52-26.98,13.96-32.84-2.72-2.32-1.26-6.61-.63-9.64-3.23,2.63-10.2,13.11-13.6,11.5-3.82-2.76.06-10.45,2.26-13.39-2.54-3.51-.6-8.54,1.42-11.89-.11-.44-.15-.89-.16-1.35-6.11,4.85-7.12-2.55-5.07-7.04-2.47,2.08-6.28,3.94-6.81-.79-.43-4.7,1.96-9.4,5.42-12.46,0-.58.05-1.16.13-1.7.18-1.25.56-2.5,1.08-3.67-2.87-2.17-1.28-7.01.11-9.68-3.38,1.82-4.81-2.32-4.08-4.98.69-4.26,2.82-8.23,6.19-10.96.05-1.59.5-3.16,1.16-4.63-3.9,1.96-5.18-.88-5.06-4.4.23-3.77,2.09-7.33,4.55-10.14-.02-.31-.02-.61-.02-.89.01-.43.05-.86.12-1.29-8.98,3.18-4.56-10.3-1.23-13.58-.48-3.34,1.1-6.73,2.96-9.4-2.73,1.28-6.2,4.96-9.28,4.27-3.15-2.37-1.09-7.33.36-10.21-6.12,2.6-4.33-7.14-2.31-9.92,1.82-3.84,6-5.28,9.42-7.34-.92-3.51.6-7.13,2.52-10.03-2.3.92-4.57,3.49-7.17,2.81-3.77-2.92-.21-10.17,2.49-12.88-6.28-2.68-2.18-11.54,1.6-14.78.86-.68,2.45-1.63,3.58-.95,1.71,1.17,3.53,2.04,5.58,1.23,3.8-1.14,7.44-2.79,11.09-4.34,12.15-6,23.62-13.47,33.78-22.46,2.27-1.97,4.52-3.97,6.74-6,2.65-1.9,5.5-6.72,9.03-6.09,3.11-3.11,15.2-18.71,14.62-5.69-1.18,6.09-5.87,10.81-9.27,15.82,1.07,3.91-.76,7.89-2.88,11.08.01,0,.02,0,.03,0,.65.08,1.13.44,1.47.93,9.84-4.23,5.49,8.76,2.15,12.86,4.34-3.82,6.26,1.09,4.97,4.98,2.83,3.45-.4,9.45-2.21,12.81-1.11,4.94-5.02,8.54-7.86,12.54.05,0,.09-.01.14-.02,4.22-6.44,9.63-5.47,7.7,2.71,2.44.22,2.45,3.2,2.39,5.04,5.05-.44,3.68,9.15,2.04,11.91,2.28,4.84-.82,10.27-3.14,14.53,6.86,2.7-2.33,16.27-4.62,20.31,9.61-1.66-7.82,34.51-9.57,38.5-3.24,9-6.85,17.89-11.07,26.49-3.6,9.8-5.95,20.15-10.03,29.83-3.25,8.75-7.19,17.23-11.63,25.43-3.5,8.54-7.16,17.03-10.82,25.5-1.51,3.5-3.05,6.98-4.61,10.45-2.79,4.88-4.91,15.49-11.24,16.13-2.18,2.96-7.32,14.77-11.87,9.73Z"/>
        <path class="cls-4" d="M835.34,1330.69c-1.31-.56-2.8-1.41-3.47-2.74-3.33-.33-7.93-1.37-8.83-5.09-6.01.52-17.21,2.71-19.74-4.7-4.14-.52-7.25-3.19-8.49-7.14-.44-.96-.33-1.73.1-2.34-1.33-4.84-2.82-9.64-3.87-14.55-1.22-4.99-.55-9.04,5.46-9.12-.42-3.1-3.43-8.12.79-9.67-.86-3.37-2.08-8.26,2.01-9.98-1.24-3.49-2.39-6.98-3.08-10.62-.33-1.67,1.26-2.63,2.83-3.11-.71-1.92-1.38-3.85-1.99-5.8-.43-1.35,1.03-2.35,2.17-2.85-2.63-6.26-12.95-19.95,1.07-18.65-1.47-2.99-4.98-8.72-.51-10.64-2.82-5.22-6.03-10.26-7.77-15.97-.69-2,1.02-3.04,2.75-3.48-2.05-3.1-4.86-8.26-.1-10.37-2.05-3.09-1.6-7.09,2.34-8.22-4.11-6.07-10.3-15.95,2.37-14.71.53-.28,1.1-.49,1.68-.64-2.27-4.56-4.85-11.31,1.25-14.03-2-3.2-7.99-7.67-4.23-11.47-2.49-4.23-5.81-10.86-.53-14.39-.43-2.57-.34-5.85,2.03-7.47-2.92-4.55-1.58-9.23,3.82-10.65-3.4-5.87-13.19-18.25-4.87-23.51-9-12.56,2.97-13.2,12.42-9.62-.9-2.28-1.32-4.85-.25-7.04-3.01-4.84-8.76-10.82-6.18-16.86-1.88-3.75-4.93-8.99-1.76-12.82-2.28-3.83-5.45-9.71-1.23-13.33-.75-2.02-.52-4.54.99-6.04-3.1-4.75-5.28-13.14,2.37-14.49-1.78-3.26-3.79-7.1-2.19-10.81-5.33-6.6-15.24-19.45.52-19.31-1.13-2.56-2.92-6.07-.94-8.6-2.07-2.87-3.63-7.63.02-9.94-3.45-4.28-5.72-10.18,1.63-11.56-1.27-2.44-3.45-5.06-2.81-7.98-2.41-3.27-6.85-6.86-5.65-11.34-5.04-5.93-11.43-11.18-14.07-18.71-.96-3.18,3.74-4.76,6.2-5.04-2.79-3.67-1.31-7.2,3.07-8.29-1.62-3.99,2.06-6.23,5.66-6.13-2.52-3.11-1.57-7.11,2.78-7.47.13-.53.48-1.03,1.03-1.43.54-.4,1.17-.68,1.84-.87-5.06-4.53-12.51-10.98-.3-11.39-.26-.45-.52-.9-.79-1.34-.6-1-.01-2.13.8-2.76-1.52-2.32-7.12-5.92-4.39-8.77-1.84-2.29-6.93-5.57-5.75-8.05,1.34-2.4,4.38-2.87,6.9-2.71-3.94-3.6-7.68-7.4-10.88-11.68-1.87-2.33.94-4.46,3.27-4.68-3.17-3.45.07-7.07,4.03-7.11-1.5-1.47-2.88-3.05-4.28-4.65-2.69-5.18,6.29-5.13,9.4-4.53-2.68-2.88-14.06-11.88-6.61-14.69-1.32-2.01-5.15-4.55-3.26-7.15,1.63-1.76,4.54-1.82,6.75-1.67-2.57-2.69-6.42-4.15-8.36-7.39-1.54-2.6.93-4.93,3.53-5.12-2.94-3.39-16.62-11.04-5.76-13.12-3.74-2.83-8.12-8.2-.7-9.46-2.75-1.76-3.28-4.83.25-5.99-6.52-4.49,1.65-7.39,6.07-6.15-1.48-1.77-4.88-3.64-4.26-6.23-4.96-3.87-10.12-7.47-15.18-11.2-4.99-3.53.42-6.65,4.42-6.42-7.84-6.01,2.37-7.71,7.33-8.13-.02-.33.04-.67.22-1.03.42-.85,1.3-1.38,2.16-1.73-.03-.39.09-.77.29-1.12,0-.05,0-.1.01-.15-3.17-3.06.29-5.94,3.72-6.02,9.22-.74,16.27,7.02,23.52,11.6,8.51,6.1,16.77,12.57,24.58,19.54,13.25,11.49,24.89,24.7,36.87,37.48,3.61,3.98,6.96,8.15,10.22,12.41,1.31,2.12,6.26,5.85,4.21,8.25,1.35,1.76,4.06,4.39,1.46,6.27,1.28,2.88,6.06,6.6,2.75,9.59,2.95,4.95,6.19,8.89-2.03,9.93,2.42,3.63,4.74,7.32,7.03,11.04,1.21,2.58-2.12,4.14-4.25,4.34,2.03,3.23,4.03,6.47,6.05,9.69,1.38,1.75.25,3.82-1.73,4.45.8,1.29,1.6,2.59,2.39,3.89,1.29,3.14-3.19,4.32-5.51,4.32.4,2.4-2.58,3.37-4.44,3.62,1.01,2.05,3.77,4.05,3.02,6.5-1.35,2.19-4.38,2.3-6.73,2.31,2.37,3.23,4.86,6.45,6.97,9.85,2.05,2.68-1.51,4.6-3.88,4.7,3.45,3.47,5.08,6.95-1.2,7.99,4.75,5.75,1.76,7.82-4.64,7.74,1.53,2.17,2.98,4.4,4.67,6.45,3.35,3.48,4.65,6.83-1.39,7.82,1.59,3.42,9.73,9.46,2.86,11.68,2.71,4.99,7.24,9.87-1.72,10.71,2.39,3.98,5.16,7.82,6.92,12.12.84,1.92-.93,3.45-2.7,3.88.55.94,1.07,1.9,1.5,2.89,1.01,2.28-1.35,3.49-3.34,3.97.96,1.85,1.87,3.72,2.71,5.62.98,2.2-1.34,3.48-3.17,3.95,3.17,3.51,1.65,6.66-3.05,6.97-.1.24-.25.47-.43.67-.09.1-.18.2-.29.29,3.29,4.48,4.69,7.5-2.29,8.32,2.27,3.73,4.5,7.49,6.79,11.22,1.3,4.19-5.2,4.59-8,4.21,1.56,2.71,3.64,6.14-.68,7.41,2.62,4.57,6.68,8.97,7.46,14.28,1.74,3.8,9,14.27,4.81,17.53.82,2.31,3.33,6,.79,7.92,2.11,3.74,5.77,11.04-1.16,11.81.97,3.55,1.48,7.92-3.28,8.43,1.6,3.56,5.6,10.62-.57,11.8,2.47,5.65,8.2,16.79-2.56,16.55,1.57,7.31,6.61,14.48,5.63,22.06.69,9.49,13.25,24.17,6.57,32.13,1.48,4.69,6.73,12.9-.16,15.43,2.95,7.58,2.1,11.85-6.99,11.18,1.02,3.86,4.34,8.65.82,11.9-.22.67-.55,1.36-1.01,1.79-.29.27-.57.54-.87.78,1.81,5.48,6.15,12.79,2.1,18.07,3.02,7.53,10.24,19.56,6.18,27.41.39,3.4-.53,7.13-2.7,9.79,1.98,6.88,9.46,23.28,2.48,28.43,3.14,8.05,3.04,16.67-8.14,14.52,1.77,6.22,8.53,17.77-3.13,17.1-2.53,2.74-6.82,2.53-10.15,1.69-.31.28-.63.54-1,.77-1.53.94-3.31,1.27-5.09,1.25,1.77,6.02-1.5,7.64-7.03,7.25,1.96,7.34,7.11,14.33-4.99,13.65,3.96,8.78-13.04,7.27-14.58,1.5-.32.03-.61.04-.86.05-.54,0-1.09-.01-1.64-.06.96,2.95,1.85,5.9,2.61,8.91-.31,4.91-8.8,3.8-11.96,2.42Z"/>
        <path class="cls-4" d="M1963.23,1606.48c-.11-.23-.2-.46-.28-.7-1.86-3.59-3.53-7.29-5.25-10.94-2.16-4.58-4.32-9.16-6.43-13.76-4.27-9.27-8.46-18.58-12.62-27.9-8.35-18.7-16.55-37.46-24.75-56.23-8.19-18.75-16.34-37.52-24.48-56.29-8.23-18.98-16.46-37.95-24.68-56.94-2.45-5.65-4.88-11.31-7.35-16.95-.77-1.74-1.33-3.58-1.45-5.49-.1-1.56,0-3.73,1.33-4.81,1.12-.91,2.52-.46,3.59.29,1.53,1.08,2.73,2.86,3.45,4.56,7.5,17.62,15.18,35.16,22.77,52.73,8.16,18.89,16.31,37.79,24.43,56.7,8.12,18.9,16.23,37.8,24.27,56.72,5.64,13.27,11.22,26.58,16.61,39.68,4.91,11.93,9.72,23.9,14.32,35.95.08.14.15.29.23.45.43.92.71,1.93.78,2.95.05.84,0,2-.71,2.59-.27.22-.55.32-.83.32-1.29,0-2.54-2.03-2.95-2.92Z"/>
        <path class="cls-4" d="M1872.92,767.4c-.82-.96-.25-2.45.27-3.39.85-1.54,2.22-2.87,3.72-3.78,1.65-1.41,3.21-2.93,4.8-4.4,1.87-1.73,3.74-3.47,5.61-5.2,3.73-3.43,7.45-6.88,11.19-10.3,7.44-6.82,14.93-13.6,22.43-20.35,15.17-13.65,30.36-27.27,45.6-40.84,4.98-4.43,9.96-8.86,14.95-13.29l7.82-6.94c1.47-1.31,2.97-2.59,4.43-3.91.46-.5.96-.95,1.45-1.35.76-.61,1.5-1.25,2.35-1.74,1.78-1.02,6.09-3.04,7.34-.15.59,1.37-.09,3.04-.75,4.24-.5.9-1.11,1.71-1.79,2.46-.2.22-.4.44-.62.65-.55.54-1.12,1.05-1.73,1.52-3,2.55-5.91,5.23-8.86,7.83-3.91,3.45-7.82,6.9-11.74,10.35-7.66,6.74-15.32,13.47-23.01,20.19-15.3,13.39-30.57,26.83-46.01,40.07-4.98,4.27-9.97,8.55-14.98,12.8-2.55,2.17-5.11,4.34-7.68,6.5-2.31,1.95-4.7,3.85-6.94,5.9-.04.05-.09.11-.13.16-1.09,1.39-2.68,2.57-4.34,3.19-.53.2-1.21.39-1.86.39-.59,0-1.15-.16-1.54-.61Z"/>
        <path class="cls-4" d="M1820.68,803.96c-.91-1.11-.5-2.71.02-3.89.97-2.21,2.74-3.89,4-4.87,3.36-2.56,6.61-5.27,9.91-7.91,4.11-3.29,8.22-6.57,12.33-9.86,8.16-6.52,16.32-13.05,24.49-19.57,16.41-13.11,32.82-26.21,49.24-39.29,16.13-12.85,32.29-25.68,48.44-38.5,11.6-9.2,23.28-18.32,35.09-27.25.3-.3.62-.58.95-.84.87-.7,1.87-1.43,2.86-1.94,0,0,0,0,0,0,.26-.15.53-.29.81-.42,1.02-.47,2.36-.92,3.49-.55,2.67.86.49,4.31-.55,5.55-.72.85-1.62,1.7-2.48,2.4-.39.32-.8.62-1.23.9-2.63,2.23-5.24,4.49-7.89,6.69-3.94,3.28-7.9,6.54-11.87,9.78-7.83,6.4-15.69,12.76-23.55,19.12-16.11,13.02-32.23,25.99-48.36,38.97-16.5,13.28-33.04,26.54-49.56,39.79-6.63,5.32-13.27,10.64-19.9,15.96l-9.89,7.93c-2.36,1.89-4.78,3.74-7.09,5.71-1.53,1.3-3.45,2.4-5.42,2.84-.46.1-.98.18-1.49.18-.88,0-1.75-.22-2.33-.92Z"/>
        <path class="cls-4" d="M1891.31,745.3c.39-1.36,1.5-2.45,2.4-3.49,1.12-1.3,2.32-2.54,3.52-3.78,2.19-2.25,4.46-4.41,6.38-6.19,5.65-5.23,11.59-10.12,17.52-15.02,7.59-6.26,15.2-12.49,22.8-18.72,3.96-3.24,7.92-6.48,11.88-9.73,1.4-1.15,2.84-2.27,4.11-3.34.3-.27.61-.53.93-.77.08-.06.16-.12.23-.18,0,0,.01-.01.02-.02,0,0,0,0,0,0,.69-.5,1.41-.95,2.19-1.33,1.38-.67,3.18-1.32,4.74-.86,1.31.39,1.86,1.54,1.75,2.84-.18,2.12-1.72,4.31-3.23,5.71-.34.32-.68.64-1.04.96-.38.34-.78.66-1.2.97-5.62,4.45-11.12,9.05-16.68,13.58-7.62,6.2-15.24,12.39-22.88,18.55-5.5,4.44-10.99,8.9-16.73,13.01-2.52,1.8-5.08,3.55-7.69,5.22-1.26.81-2.53,1.62-3.84,2.35-.63.35-1.26.7-1.89,1.04-.59.32-1.32.67-2,.69-.03,0-.05,0-.08,0-.91,0-1.48-.53-1.21-1.5Z"/>
        <path class="cls-4" d="M1884.24,830.19c-.85-.64-1.57-1.27-1.98-2.28-.05-.11-.08-.23-.1-.35-.09.02-.18.03-.26.05-1.01.17-1.92-.12-2.44-.77-2.72,2.02-8.73,3.17-7.37-2.12-3.48.42-3.75-3.44-2.25-5.68,1.92-3.68,5.44-6.08,9.08-7.84.07-.47.21-.93.39-1.39-.41-.52-.57-1.21-.52-1.96.02-.24.05-.48.1-.72-.51-.05-.97-.19-1.34-.46-5.16,1.82-5.95-2.52-3.46-6.12-3.64-1.76-.32-6.54,1.63-8.43-2.92-2.78,3.67-9.95,5.68-12.22-.62-2.1.72-4.24,1.93-5.86-2.19-1.75-.4-4.96.89-6.77-7.21,2.59-5.95-4.94-2.43-8.37-1.76-6.99,7.88-11.12,12.88-13.77,2.87-3.66,7.32-5.39,11.38-7.36,3.31-3.03,6.92-5.73,10.67-8.2,7.84-10.51,19.31-17.52,29.94-24.9,5.62-3.55,9.41-8.37,15.68-9.61,3.06-2.49,9.78-3.77,7.64,2.43-1.02,2.82-3.54,4.88-5.82,6.68.94,1.58-.23,3.97-1.15,5.27-.32.45-.66.88-1.01,1.3,16.08-3.63,13.24,6.47,2.87,12.78,2-.12,4.01-.23,6.01-.25,1.57-.02,3.57-.28,4.83.84,9.98-.77,5.17,7.56.28,10.99,6.25-.34,3.66,5.96.85,8.64-.14.82-.49,1.62-.87,2.32-.84,1.58-2.08,3.06-3.53,4.27.09.78-.2,1.68-.47,2.37-.35.87-.84,1.69-1.41,2.45.24.29.39.66.47,1.05,5.63-.19,3.44,5.62.96,8.13,1,.09,1.98.31,2.84.86,1.54.99,1.15,2.94.49,4.41.13.09.25.2.36.32.58.66.66,1.54.53,2.39,1.38.79,1.65,2.62,1.12,4,1.07.06,2.21.55,2.48,1.69,1.98.02,3.9-.39,5.85-.69,4.14-.63,4,4.05,1.98,6.45,1.03.64,1.08,2,.81,3.05-1.85,5.94-8.38,9.06-14.19,9.71-7.4,7.13-24.36,9.88-34.33,12.9-10.5,2.74-20.96,5.58-31.4,8.54-6.03,1.72-12.21,3.04-17.75,6.1,1.5,2.56-4.01,7.37-6.49,6.13Z"/>
        <path class="cls-4" d="M1879.05,864.49c-5.23-1.48-10.06-4.34-15.43-5.32-.64-.1-1.15-.54-1.45-1.1-4.01.99-7.88,2.53-11.98,3.17-1.45.3-3.3-.41-3.44-2.05-4.13,1.09-7.53.23-5.4-4.69-8.61.4-3.41-8.34.66-10.96-1.97-2.26.67-5.26,2.44-6.82,3.27-7.31,12-8.23,18.83-10.25,16.41-4.44,32.61-9.62,49.11-13.73,23.94-5.94,48.16-10.72,72.58-14.21,4.3-.65,8.63-1.13,12.92-1.79,1.29-.25,2.71-.83,3.96-.14,3.11,2.71-2.14,7.87-4.62,9.29.02.02.05.05.07.08,2.18.01,5.19-1.17,6.97.44,1.76,2.72-.97,5.99-2.82,7.93,3.62.08,7.28,0,10.83.76,4.41,1.86-.22,7.63-2.38,9.62-1.01,4.2-4.8,7.27-8.36,9.36-5.06,2.45-10.9,2.22-16.38,2.91-1.37.54-2.83.43-4.27.38-4.55.41-9.1.82-13.64,1.24-1.73,1.23-3.65,2.04-5.59,2.84-23.06,8.15-47.52,11.56-71.63,15.17-1.67,4.07-6.37,8.47-10.94,7.88Z"/>
        <path class="cls-4" d="M1962.71,1392.05c-7.65-.06-11.72-7.31-18-10.61-4.73-3.26-10.67-6.4-11.84-12.49-14.96-10.49-32.99-15.59-49.51-23.13-18.1-4.36-10.46-24.38-1.89-34.51-3.95-2.2-8.88-2.69-12.05-6.07-4.31-5.17-2.76-12.55-.42-18.3-7.22-2.9-16.96-3.55-20.37-11.65-3.4-9.96,2.97-20.17,8.83-27.9-7.14-7.06-2.14-18.4,2.27-25.65-7.8-6.47-7-17.45-2.51-25.63-21.91-6.54-14.35-25.82-3.16-38.97-7.07-1.84-14.38-3.53-20.48-7.73-6.91-4.32-5.59-13.19-3.02-19.67,6.16-15.26,19.81-25.89,33.39-34.13-10.24-1.99-20.77-2.43-30.9-4.92-16.32-5.86-4.81-26.68,2.93-35.4-15.59-2.83-9.56-21.47-3.34-30.54-6.35-.49-12.63-.76-18.93-1.8-5.91-.98-10.35-5.99-11.18-11.82-2.09-18.17,15.35-34.49,29.6-43.33,1.57-5.18,4.4-9.9,7.61-14.25-23.47.74-18.6-19.68-8.2-32.78-12.99,1.4-25.28-.42-21.35-16.8,1.15-2.82.96-5.48,1.45-8.5-9.38-6.9-2.92-20.5,2.23-28.17,14.17-22.04,40.31-30.71,64.85-35.23,17.72-3.93,35.64-6.8,53.66-8.81,29.79-6.71,60.2-10.85,90.77-11.13,5.59-.03,11.42-.27,16.8,1.49,20.7,8.78-2.33,37.02-13.29,45.23-.25,8.45-5.16,16.09-10.19,22.55.49,2.05.44,4.31.06,6.57,36.4,15.23,23.41,42.62-.1,63.16,8.02,2.76,29.42,6.12,32.6,13.88,3.91,12.02-5.24,23.86-12.77,32.42,22.72,10.35-5.11,42.58-18.19,50.33-.08,9.96-5.5,18.45-11.71,25.83,16.84,11.27,24.39,23.31,12.83,42.23,15.22,6.77,4.28,26.47-3.47,35.32,15.98,8.48,6.68,26.54-1.95,37.01,11.7,13.62-7.09,34.18-17.59,43.06-.49,1.69-1.14,3.35-1.9,4.97,21.72,13.58,23.73,20.6,9.09,42.32,15.65,13.79,15.09,23.75,3.32,40.27,1.5,3.35,2.52,6.88,2.01,10.63-.19,1.42-.48,2.81-.84,4.17,7.28,5.83,7.44,13.26,4.03,21.31-8.48,18.69-27.99,36.18-49.17,37.14Z"/>
        <path class="cls-4" d="M1972.14,1518.29c-14.06-4.26-26.38-14.22-34.25-26.54-4.28-6.97-7.1-14.98-9.93-22.61-1.94-5.21-3.72-10.46-5.51-15.72-3.1-9.14-5.63-18.55-7.72-27.99-1.73-3.11-3.44-6.23-5.1-9.39-9.42-14.83-17.65-30.41-25.27-46.24-3.77-9.05-9.07-17.24-11.31-27.16-1.79-3.36-2.91-6.71-3.65-10.42-.85-4.44-3.75-8.65-3.34-13.29-2.45-7.03.9-14.89,8.71-15.9,7.08-9.84,21.54-3.97,30.29.41,10.49,5.39,18.8,13.86,27.22,21.91,5.11,5.18,10.15,10.4,15.1,15.73,13.36,14.33,23.57,31.18,34.97,47.03,5.46,8.07,12.46,15.06,18.31,22.78,5.11,6.8,12.57,22.09.49,26.49-2.04,5.68-8.54,7.49-14.06,6.91.07.69.09,1.37.07,2.05,4.05,8.43,11.42,21.57,3.14,29.51,3.41,8.39,11.57,21.4,1.45,28.11,3.51,14.08-8.14,18.09-19.64,14.35Z"/>
        <path class="cls-4" d="M1968.63,1575.17c-9.73-.61-18.52-8.7-20.96-17.99-4.37-9.65-8.32-20.26-12.19-30.19-4.2-12.56-8.86-25.01-11.05-38.14-2.15-9.24-3.02-20.09,10.09-18.39,7.22-3,15.29,2.61,20.53,7.29,8,7.18,9.51,18.3,13.13,27.83,3.41,10.18,6.81,20.35,10.16,30.55,1.87,6,4.18,12.13,4.12,18.48-.12,1.55-.77,2.94-1.87,3.97-.76,2.35-3.49,3.91-5.91,4.25.91,4.75.25,12.38-6.05,12.34Z"/>
        <path class="cls-4" d="M1938.6,1529.4c-4.25-2.34-7.99-5.73-10.19-10.14-3.96-7.62-7.29-15.57-9.95-23.73-2.19-6.46-4.11-13.01-5.84-19.61-1.53-4.46-1.6-9.12,3.68-10.68,2.02-5.75,10.76-.77,13.52,2.12,3.87,3.14,4.43,8.2,6.49,12.4,0,0,.01,0,.02,0,4.29,11.32,6.93,23.25,10.78,34.74,1.32,4.56,4.92,9.12,4.02,13.99-2.32,4.64-9.29,2.87-12.54.91Z"/>
        <path class="cls-4" d="M1933.07,1486.97c-27.63-5.78-35.22-37.98-42.75-61.22-1.43-8.31-18.71-36.96-5.52-39.81,6.31-1.13,13.73,1.12,19.21,4.04,18.03,8.9,23.16,28.83,29.59,46.22.61,3.25,3.63,5,4.59,8.05,1.29,6.65,3.89,12.8,6.85,18.86,4.48,9.19,11.51,21.45-4.5,22.37-2.05,1.79-4.94,1.78-7.48,1.49Z"/>
        <path class="cls-4" d="M1950.22,1455.86c-23.25-4.71-41.01-24.32-50.71-45.12-10.61-9.69-19-21.94-23.83-35.47-6.26-15.74-4.77-33.12,16.6-24.08,16.84-3.08,38.03,13.98,44.88,28.6,4.12,9.99,6.45,20.68,10.22,30.81,8.93,7.04,25.37,23.35,17.96,35.49-.29,8.65-7.76,10.8-15.12,9.77Z"/>
      </g>
    </g>
  </g>
  <g id="Vector_layer-3" data-name="Vector layer">
    <path d="M1895.22,738.64v713.88H860.98v-713.88h1034.23Z"/>
  </g>
  <g id="Vector_layer-4" data-name="Vector layer">
    <path class="cls-3" d="M1735.49,1472.2l38.52,84.73h-816.98l29.75-84.73h748.71Z"/>
  </g>
</svg>