<?xml version="1.0" encoding="UTF-8"?>
<svg id="Layer_group" data-name="Layer group" xmlns="http://www.w3.org/2000/svg" viewBox="0 0 2732 2048">
  <defs>
    <style>
      .cls-1 {
        fill: #8f8f8f;
      }

      .cls-2 {
        fill: #c6c6c6;
      }

      .cls-3 {
        fill: #d7d7d7;
      }
    </style>
  </defs>
  <g id="Vector_layer" data-name="Vector layer">
    <path class="cls-1" d="M719.3,1520.43c-3.59-1.54-6.61-1.44-12.27.06-7.19.24-14.37,1.13-21.56,1.64-3.07,2.76-6.13,5.53-9.19,8.29-.05.03-.09.05-.12.05-.12,0-.2-.15-.23-.27-.06-.19-.06-.53.1-.68,2.7-2.44,5.41-4.87,8.11-7.31-5.16.34-10.31.45-15.48-.03-10.13-1.38-19.92-5-30.3-4.49-3.75-.41-7.45-.04-11.2.24-4.68-.17-9.53-3.88-10.31-8.59-.35-1.8-.44-3.52-.32-5.18-.6.64-1.2,1.28-1.78,1.94-5.68,5.68-10.46,12.17-14.8,18.91-1.24,1.85-2.45,3.72-3.52,5.67-.37.8-.88,1.69-.36,2.55.17.3.33.61.33.67,5.72,9.67,31.63,8.67,41.98,8.29,7.82-.7,15.7-2.03,23.06-4.85,4.35-2.01,8.6-4.23,13.24-5.54,10.05-2.97,20.59-4.15,30.93-5.79-.13-1.4.03-3.78,1.72-4.12,4.04-.24,7.96-.91,11.95-1.46ZM1377.03,1426.77c8.37,2.37,17.01,1.4,25.54.48-6.47-.64-12.89-2.08-19.43-2.21-5.77-.53-11.66-.59-17.45-1.23,3.78,1.01,7.56,2.03,11.35,2.96ZM2120.45,1565.46c3.37,7.77-.12,17.39-7.96,20.82-7.03,2.09-14.59,3.05-21.95,3.07.26.21.53.42.79.63.95.76,1.88,1.55,2.85,2.27.49.37.76,1.06.92,1.62.21.75.28,1.55.17,2.33-.08.54-.25,1.19-.69,1.55-.17.14-.36.21-.54.21-.23,0-.45-.09-.63-.25-1.29-1.1-2.63-2.15-3.94-3.22-1.61-1.32-3.22-2.63-4.83-3.93-.73-.6-1.47-1.19-2.21-1.79-5.05-.39-10.06-.66-15.19-.42-7.64-.13-15.04-2.28-22.59-3.35-1.99-.54-6.08.26-5.16-3.04.02-.69.67-1.47,1.12-.56,11.45.41,22.64,3.22,34.1,1.97.36,0,.73,0,1.09.02-.49-.39-.98-.8-1.47-1.19-7.19-5.84-14.39-11.67-21.6-17.49-7.22-5.83-14.44-11.69-21.66-17.53-7.11-5.75-14.22-11.49-21.31-17.27-7.45-6.07-14.94-12.11-22.41-18.16-7.11-5.77-14.22-11.54-21.32-17.32-4.86-3.94-9.71-7.89-14.55-11.84-4.83-.2-9.67-.39-14.51-.58-26.22-1.04-52.44-2.08-78.66-3.12-51.63-2.05-103.27-4.1-154.9-6.15-53.31-2.12-106.63-4.23-159.93-6.35-54.36-2.17-108.72-4.31-163.09-6.48-53.31-2.12-106.61-4.23-159.92-6.35-52.95-2.1-105.91-4.21-158.87-6.32-52.04-2.07-104.07-4.16-156.11-6.24-26.34-1.06-52.67-2.11-79.01-3.19-14.96-.62-29.93-1.21-44.89-1.84-5.43,4.89-10.87,9.78-16.3,14.66-6.5,5.84-13,11.68-19.5,17.52-6.54,5.87-13.07,11.73-19.61,17.59-6.54,5.86-13.08,11.72-19.62,17.57-3.19,2.85-6.39,5.7-9.57,8.55-1.73,1.55-3.47,3.08-5.2,4.63,4.94-.28,9.87-.51,14.89-.39,9.17-1.85,11.86-.67,19.21,4.88,1.51.47,1.05,4.06-.74,2.8-1.59-1.02-2.96-1.87-4.21-2.52.51,1.1.22,2.98-.17,3.86-.65,1.69-2.89,1.19-4.34,1.66-.15,5.5-7.95,4.41-11.79,5.41-7.28.9-14.44,2.41-21.66,3.56-10.14,1.3-18.48,7.27-28.17,9.74-10.75,2.81-22,3.56-33.07,2.82-8.31-1.01-17.72-.68-24.54-6.13-8.03-7.1-3.63-15.49,1.76-22.79,6.06-9.29,13.32-17.8,21.28-25.6,3.91-6.05,10.18-11.06,15.49-15.62.95-.73,1.6-2.6,2.95-2.43.39.45.67.9.85,1.36,17.13-13.29,34.11-26.79,50.52-40.98,10.9-8.93,21.82-18.05,33.82-25.5,9.36-5.2,19.44-9.37,29.35-13.27,23.5-7.96,48.89-1.55,73.06-.88,8.7.62,17.38-.79,26.07-.48,13.79.25,27.46,2.01,41.12,3.79,11.54,1.18,23.03,2.76,34.59,3.67,11.53.89,23.11.42,34.65,1.17,13.89.84,27.82-.22,41.72.51,9.71.54,19.43,1.15,29.16,1.44,25.25,1.3,50.39,4.18,75.63,5.64,11.84.87,23.63-.69,35.45-1.15,22.64-.43,45.28-.55,67.88,1.32,22.59,2.01,45.28,2.15,67.95,2.1,18.97.96,37.85,3.41,56.86,3.97,5.9.33,11.68,1.36,17.42,2.66-.76-1.21-.7-2.99-.23-4.23.15-.32.32-.61.54-.88.47-.65,1.38-.34,1.71.3,9.29,2.23,18.87,2.06,28.34,2.93,6.87.19,13.56,1.8,20.37,2.41,8.64-.63,17.24-.6,25.87.32.47.03.93.07,1.4.12,10.6-2.22,21.21-4.46,32-5.66,5.34-.84,10.73.42,16.08.44,5.08.16,10.19-.77,15.03-1.89.43,0,.32,1.28-.05,1.21-3.15,2.44-7.21,3.74-11.25,4.29-7.47,1.13-15.11-.28-22.5,1.5-2,.28-4,.61-5.98.95,9.28-.62,18.54-1.41,27.83-1.71,15.13.91,30.46,1.43,45.33,4.63,10.52,1.59,21.03,3.09,31.52,4.81,12.31.99,24.68.19,36.95-.87,12.38-.99,24.82-1.02,37.22-1.28,12.26,0,24.25,3.28,36.52,3.52,9.49.31,19.17,2.33,28.48,3.54,15.65,1.09,31.19,3.6,46.91,3.5,12.26.73,24.48.24,36.73-.15,14.86.78,29.73.59,44.57,1.66,10.08.43,20.29,2.04,30.2,3.04,7.32.1,14.64-.73,21.96-.17,12.52.68,25.18,2.14,37.7,1.02,5.57-1.08,11.28-2.47,16.63-4.64-.24-.04-.49-.08-.73-.13-.19-.02-.37-.04-.56-.06-.16-.02-.31-.02-.44-.06h0c-11.35-.83-22.53-2.7-33.95-2.81-5.16-.08-10.26,1.57-15.14,3.1-1.19,2.37-3.28-.91-3.08-2.41-.04-.92.06-2,.67-2.74,1.92-1.2,4.42-1.77,6.58-2.26,2.66-.54,5.31-1.54,8.06-1.71,12.9-.17,25.62,1.98,38.44,3,3.21.62,6.3.83,9.39.91,0-.48.09-1.16.58-1.22.54-.03.71.87.73,1.25,2.54.05,5.09.04,7.7.15,11.18,1.64,22.18,4.12,33,7.36,20.3,6.49,39.24,17.28,54.71,31.92,19.7,16.84,35.06,37.82,51.72,57.49,9,11.53,21.63,20.57,28.11,33.87Z"/>
  </g>
  <g id="Vector_layer-2" data-name="Vector layer">
    <path class="cls-2" d="M2191.21,1556h-102.55l-181.08-129.19,58.62.1,225.01,129.09Z"/>
  </g>
  <g id="Vector_layer-3" data-name="Vector layer">
    <path class="cls-2" d="M805.27,1387.61l-155.69,119.46-107.12-3.88,210.31-118.47,52.49,2.89Z"/>
  </g>
  <g id="Vector_layer-4" data-name="Vector layer">
    <path class="cls-3" d="M752.55,1385.19l1213.88,42.2-12.54,30.04-1185.07-43.52-16.26-28.72Z"/>
  </g>
  <g id="Vector_layer-5" data-name="Vector layer">
    <path class="cls-3" d="M542.5,1503.13l1648.7,52.64v89.29H542.5v-141.94Z"/>
  </g>
</svg>